<svg width="17" height="16" viewBox="0 0 17 16" fill="none" xmlns="http://www.w3.org/2000/svg">
<g clip-path="url(#clip0_7_142)">
<path d="M2.98943 2H13.8677C14.2284 2 14.5742 2.14048 14.8293 2.39052C15.0843 2.64057 15.2275 2.97971 15.2275 3.33333V7.33333C15.2275 9.10144 14.5112 10.7971 13.2362 12.0474C11.9611 13.2976 10.2318 14 8.42858 14C7.53573 14 6.65162 13.8276 5.82674 13.4925C5.00185 13.1575 4.25234 12.6664 3.621 12.0474C2.34595 10.7971 1.62964 9.10144 1.62964 7.33333V3.33333C1.62964 2.97971 1.7729 2.64057 2.02791 2.39052C2.28292 2.14048 2.62879 2 2.98943 2V2Z" stroke="#0768B5" stroke-width="2" stroke-linecap="round" stroke-linejoin="round"/>
<path d="M5.70898 6.66667L8.42856 9.33333L11.1481 6.66667" stroke="#0768B5" stroke-width="2" stroke-linecap="round" stroke-linejoin="round"/>
</g>
<defs>
<clipPath id="clip0_7_142">
<rect width="16.3175" height="16" fill="white" transform="translate(0.269836)"/>
</clipPath>
</defs>
</svg>
